<svg width="25" height="38" viewBox="0 0 25 38" fill="none" xmlns="http://www.w3.org/2000/svg">
<path d="M0.5 25.4973L0.5 0.500244L24.5 0.500244L24.5 25.4866L12.0586 36.7102L0.5 25.4973Z" fill="#B36A2E" fill-opacity="0.2" stroke="#B36A2E"/>
<path d="M15.02 21.745C14.9933 21.745 14.9667 21.7516 14.94 21.765C14.6733 21.8583 14.4333 21.905 14.22 21.905C14.0067 21.905 13.9 21.8383 13.9 21.705C13.9 21.6116 13.9933 21.4916 14.18 21.345C14.58 21.025 14.78 20.6583 14.78 20.245C14.78 20.0183 14.72 19.7183 14.6 19.345C14.6 19.3316 14.58 19.2916 14.54 19.225C14.5133 19.145 14.4667 19.0383 14.4 18.905C14.3467 18.7583 14.2867 18.605 14.22 18.445C14.18 18.365 14.0733 17.9583 13.9 17.225C13.7267 16.7316 13.4 16.485 12.92 16.485L12.28 16.325C12.0667 16.245 11.8133 16.205 11.52 16.205C11.0667 16.205 10.7267 16.265 10.5 16.385C10.3267 16.4383 10.1667 16.7116 10.02 17.205C9.94 17.5516 9.85333 17.7983 9.76 17.945C9.57333 18.2516 9.44667 18.525 9.38 18.765C9.38 18.7783 9.35333 18.9183 9.3 19.185C9.23333 19.6916 9.2 19.965 9.2 20.005C9.2 20.2716 9.23333 20.4583 9.3 20.565L9.38 20.645C9.43333 20.6983 9.51333 20.785 9.62 20.905C9.72667 21.025 9.84667 21.1516 9.98 21.285C10.1267 21.4316 10.2 21.5316 10.2 21.585C10.2 21.7583 10.04 21.845 9.72 21.845C9.54667 21.845 9.33333 21.8383 9.08 21.825H8.88H8.7H8.36L7.48 21.845C7.16 21.845 7 21.745 7 21.545C7 21.425 7.03333 21.345 7.1 21.305L7.48 21.005C7.56 20.9516 7.69333 20.705 7.88 20.265C7.89333 20.225 8.00667 20.065 8.22 19.785C8.27333 19.7183 8.36667 19.425 8.5 18.905C8.54 18.8383 8.70667 18.425 9 17.665L9.32 16.785C9.64 15.9316 9.98 15.005 10.34 14.005C10.34 13.9783 10.36 13.9116 10.4 13.805C10.4533 13.685 10.5333 13.4916 10.64 13.225C10.7467 12.9583 10.8533 12.6916 10.96 12.425C11.2933 11.625 11.4933 11.1116 11.56 10.885C11.7733 10.245 11.9267 9.55828 12.02 8.82495C12.1 8.33162 12.26 8.08495 12.5 8.08495C12.58 8.08495 12.6733 8.19828 12.78 8.42495C12.8467 8.55828 13.0667 9.18495 13.44 10.305C13.44 10.3183 13.5533 10.5583 13.78 11.025C13.7933 11.1183 13.8333 11.305 13.9 11.585C13.9133 11.625 13.9267 11.685 13.94 11.765C13.9667 11.845 14 11.9583 14.04 12.105C14.08 12.2383 14.1133 12.3583 14.14 12.465C14.1667 12.5716 14.28 12.8316 14.48 13.245L15.02 14.645L15.2 15.345L15.54 16.445C15.66 16.8316 15.82 17.3516 16.02 18.005C16.1133 18.245 16.2667 18.7183 16.48 19.425C16.68 20.065 16.9133 20.5316 17.18 20.825C17.22 20.8383 17.3733 20.9516 17.64 21.165C17.72 21.2316 17.76 21.325 17.76 21.445C17.76 21.6316 17.6333 21.745 17.38 21.785L16.24 21.825L15.74 21.865C15.7 21.865 15.46 21.825 15.02 21.745ZM12.18 12.265C12.14 12.265 12.1067 12.2783 12.08 12.305L11.88 12.645C11.7333 12.8983 11.6 13.1316 11.48 13.345C11.28 13.9316 11.18 14.3516 11.18 14.605C11.18 14.7516 11.2 14.8716 11.24 14.965C11.32 15.1516 11.5867 15.2916 12.04 15.385C12.16 15.3983 12.2533 15.4183 12.32 15.445C12.4933 15.4983 12.6467 15.525 12.78 15.525C12.9533 15.525 13.04 15.4316 13.04 15.245C13.04 14.525 12.9533 13.885 12.78 13.325C12.5533 12.6183 12.3533 12.265 12.18 12.265Z" fill="#B36A2E"/>
</svg>
