<svg width="25" height="31" viewBox="0 0 25 31" fill="none" xmlns="http://www.w3.org/2000/svg">
<path d="M0.5 21.0732L0.5 0.5L24.5 0.5L24.5 21.0625L12.0566 30.3682L0.5 21.0732Z" fill="#C2A04A" fill-opacity="0.2" stroke="#C2A04A"/>
<path d="M9.74 5.52L9.96 5.54L10.28 5.56C10.4533 5.57333 10.7067 5.59333 11.04 5.62C11.3867 5.64667 11.5667 5.66 11.58 5.66H12.94L13.22 5.68C13.5133 5.68 14.0467 5.94 14.82 6.46C15.26 6.67333 15.5533 6.86 15.7 7.02C16.22 7.62 16.48 8.42667 16.48 9.44C16.48 9.84 16.4 10.1667 16.24 10.42C15.88 10.9933 15.6 11.3733 15.4 11.56C15.1067 11.8 14.94 11.9467 14.9 12C14.8733 12.0533 14.86 12.1 14.86 12.14C14.86 12.2867 14.96 12.42 15.16 12.54C15.28 12.62 15.5133 12.8533 15.86 13.24L16.14 13.74C16.4333 14.2067 16.58 14.6667 16.58 15.12V15.38C16.5667 15.5267 16.56 15.6667 16.56 15.8C16.5733 16.64 16.2067 17.4133 15.46 18.12C14.6067 18.76 13.9267 19.0733 13.42 19.06C13.1933 19.0733 12.9333 19.08 12.64 19.08H11.7L10.24 19.06C10.16 19.06 9.98667 19.0467 9.72 19.02C9.45333 19.0067 9.28 19 9.2 19C9.09333 19 9 19.0067 8.92 19.02C8.6 19.0467 8.4 19.06 8.32 19.06C8.08 19.06 7.96 18.9667 7.96 18.78C7.96 18.6733 7.98 18.6 8.02 18.56L8.62 17.9C8.80667 17.5 8.92 17.0333 8.96 16.5C9 15.7 9.02 15.0667 9.02 14.6L9.04 10.2C9.04 10.08 9.02667 9.86 9 9.54C9.06667 9.03333 9.1 8.76667 9.1 8.74C9.1 8.72667 9.09333 8.69333 9.08 8.64C9.08 8.57333 9.07333 8.48 9.06 8.36C9.06 8.22667 9.06 8.09333 9.06 7.96C9.03333 7.66667 8.98 7.4 8.9 7.16C8.86 7.02667 8.82 6.9 8.78 6.78C8.71333 6.68667 8.54667 6.5 8.28 6.22C8.16 6.12667 8.1 6.02667 8.1 5.92C8.1 5.77333 8.15333 5.68667 8.26 5.66C8.27333 5.64667 8.54 5.62667 9.06 5.6C9.12667 5.6 9.28667 5.58 9.54 5.54C9.62 5.52667 9.68667 5.52 9.74 5.52ZM12 12.34H11.62H11.2C10.9867 12.3533 10.84 12.58 10.76 13.02C10.72 13.1667 10.7 13.3533 10.7 13.58V14.52L10.64 14.86C10.64 14.8867 10.6467 14.96 10.66 15.08C10.6733 15.1867 10.68 15.2533 10.68 15.28L10.66 16.5L10.58 17.36C10.58 17.52 10.6067 17.6333 10.66 17.7C10.7933 17.9 11.0133 18.0667 11.32 18.2C11.5333 18.3067 11.68 18.3533 11.76 18.34L12.16 18.3C12.3733 18.2867 12.6133 18.2667 12.88 18.24C13.0267 18.1733 13.2667 18.0067 13.6 17.74C14.0133 17.4067 14.3 17 14.46 16.52C14.4733 16.4 14.4933 16.18 14.52 15.86C14.52 15.7667 14.5267 15.6733 14.54 15.58V15.06V14.6C14.5133 14.1867 14.46 13.92 14.38 13.8C14.1933 13.52 13.9467 13.24 13.64 12.96C13.2267 12.5467 12.68 12.34 12 12.34ZM11.8 6.44C11.72 6.44 11.5867 6.50667 11.4 6.64C11.2133 6.76 11.08 6.86 11 6.94C10.96 6.98 10.9067 7.12 10.84 7.36C10.8133 7.46667 10.7933 7.67333 10.78 7.98L10.72 8.52C10.72 8.57333 10.7267 8.62 10.74 8.66C10.7933 8.92667 10.82 9.28 10.82 9.72C10.82 9.85333 10.8133 9.99333 10.8 10.14V10.32C10.8 10.8 10.9667 11.1667 11.3 11.42C11.4867 11.54 11.6533 11.6 11.8 11.6C12.2267 11.6 12.5667 11.5133 12.82 11.34L13.32 11C13.4533 10.92 13.6667 10.7867 13.96 10.6C14.3333 10.1733 14.52 9.61333 14.52 8.92C14.52 8.8 14.4867 8.50667 14.42 8.04C14.38 7.8 14.24 7.59333 14 7.42C13.84 7.31333 13.74 7.22 13.7 7.14C13.4467 6.84667 13.28 6.67333 13.2 6.62C13.1867 6.62 13.1533 6.62 13.1 6.62C13.06 6.60667 12.9867 6.6 12.88 6.6C12.7867 6.58667 12.6867 6.58 12.58 6.58L11.8 6.44Z" fill="#C2A04A"/>
</svg>
