<svg width="25" height="38" viewBox="0 0 25 38" fill="none" xmlns="http://www.w3.org/2000/svg">
<path d="M0.5 25.4973L0.5 0.500244L24.5 0.500244L24.5 25.4866L12.0586 36.7102L0.5 25.4973Z" fill="#6B7B63" fill-opacity="0.2" stroke="#6B7B63"/>
<path d="M12.42 8.08495C13.6467 8.08495 14.8467 8.43162 16.02 9.12495C16.1133 9.17828 16.3667 9.28495 16.78 9.44495C16.94 9.51162 17.0267 9.63162 17.04 9.80495C17.08 10.125 17.1 10.5516 17.1 11.085C17.1 11.125 17.0933 11.225 17.08 11.385C17.0667 11.545 17.06 11.645 17.06 11.685V12.245C17.06 12.3916 16.9933 12.465 16.86 12.465C16.7533 12.465 16.66 12.385 16.58 12.225C16.58 12.2116 16.5067 12.0516 16.36 11.745C16.08 11.225 15.9267 10.9516 15.9 10.925C15.8067 10.765 15.6867 10.645 15.54 10.565L14.94 10.145C14.74 9.98495 14.38 9.73828 13.86 9.40495C13.74 9.35162 13.42 9.28495 12.9 9.20495C12.5267 9.13828 12.28 9.10495 12.16 9.10495C11.9467 9.10495 11.74 9.16495 11.54 9.28495C11.1267 9.37828 10.6867 9.63162 10.22 10.045C9.91333 10.2183 9.71333 10.345 9.62 10.425C9.16667 10.945 8.85333 11.385 8.68 11.745C8.37333 12.425 8.22 12.8516 8.22 13.025V13.905L8.18 14.145C8.04667 14.585 7.98 14.8583 7.98 14.965C7.98 15.005 7.98667 15.045 8 15.085C8.04 15.3916 8.06 15.6516 8.06 15.865V15.985L8.02 16.505V16.605L8.06 16.905V17.585C8.06 17.7983 8.20667 18.1916 8.5 18.765C8.72667 19.1783 8.94 19.4916 9.14 19.705C9.68667 20.2916 10.24 20.6783 10.8 20.865C11.1467 20.9716 11.5067 21.025 11.88 21.025L12.88 21.005C13.04 21.005 13.3467 20.9916 13.8 20.965C13.8933 20.965 13.9733 20.9583 14.04 20.945C14.3467 20.9316 14.56 20.885 14.68 20.805C14.9467 20.645 15.24 20.3716 15.56 19.985C15.72 19.6916 15.92 19.365 16.16 19.005C16.2667 18.885 16.34 18.7316 16.38 18.545C16.42 18.2383 16.54 18.085 16.74 18.085C16.9267 18.085 17.02 18.2383 17.02 18.545C17.02 18.5983 17.0067 18.9583 16.98 19.625V20.185C16.9533 20.5716 16.9267 20.8183 16.9 20.925C16.8867 20.9916 16.8267 21.0583 16.72 21.125L16.52 21.225C16.4933 21.2383 16.4533 21.2583 16.4 21.285C16.36 21.2983 16.3333 21.3116 16.32 21.325C15.8667 21.6316 15.6067 21.7716 15.54 21.745L14.96 21.925C14.44 22.1116 14.06 22.205 13.82 22.205C13.22 22.205 12.7933 22.1983 12.54 22.185C12.5 22.185 12.4467 22.185 12.38 22.185C12.3267 22.185 12.28 22.185 12.24 22.185L12.16 22.165C12.0133 22.165 11.84 22.1716 11.64 22.185C11.3733 22.1716 11.1533 22.1383 10.98 22.085C10.8733 22.0583 10.6133 21.945 10.2 21.745C9.76 21.4916 9.53333 21.3583 9.52 21.345L9.04 20.985C8.44 20.545 7.99333 20.1716 7.7 19.865C7.36667 19.4783 6.96 18.8583 6.48 18.005C6.29333 17.685 6.12 17.2583 5.96 16.725C5.89333 16.485 5.86 15.8983 5.86 14.965C5.86 14.245 5.90667 13.6516 6 13.185C6.14667 12.4916 6.41333 11.9116 6.8 11.445C7.12 11.085 7.28667 10.885 7.3 10.845L7.82 9.98495C7.99333 9.69162 8.57333 9.32495 9.56 8.88495C10.24 8.57828 10.7067 8.38495 10.96 8.30495C11.48 8.15828 11.9667 8.08495 12.42 8.08495Z" fill="#6B7B63"/>
</svg>
