<svg width="25" height="31" viewBox="0 0 25 31" fill="none" xmlns="http://www.w3.org/2000/svg">
<path d="M0.5 21.0732L0.5 0.5L24.5 0.5L24.5 21.0625L12.0566 30.3682L0.5 21.0732Z" fill="#86818D" fill-opacity="0.2" stroke="#86818D"/>
<path d="M12.42 5.26C13.6467 5.26 14.8467 5.60667 16.02 6.3C16.1133 6.35333 16.3667 6.46 16.78 6.62C16.94 6.68667 17.0267 6.80667 17.04 6.98C17.08 7.3 17.1 7.72667 17.1 8.26C17.1 8.3 17.0933 8.4 17.08 8.56C17.0667 8.72 17.06 8.82 17.06 8.86V9.42C17.06 9.56667 16.9933 9.64 16.86 9.64C16.7533 9.64 16.66 9.56 16.58 9.4C16.58 9.38667 16.5067 9.22667 16.36 8.92C16.08 8.4 15.9267 8.12667 15.9 8.1C15.8067 7.94 15.6867 7.82 15.54 7.74L14.94 7.32C14.74 7.16 14.38 6.91333 13.86 6.58C13.74 6.52667 13.42 6.46 12.9 6.38C12.5267 6.31333 12.28 6.28 12.16 6.28C11.9467 6.28 11.74 6.34 11.54 6.46C11.1267 6.55333 10.6867 6.80667 10.22 7.22C9.91333 7.39333 9.71333 7.52 9.62 7.6C9.16667 8.12 8.85333 8.56 8.68 8.92C8.37333 9.6 8.22 10.0267 8.22 10.2V11.08L8.18 11.32C8.04667 11.76 7.98 12.0333 7.98 12.14C7.98 12.18 7.98667 12.22 8 12.26C8.04 12.5667 8.06 12.8267 8.06 13.04V13.16L8.02 13.68V13.78L8.06 14.08V14.76C8.06 14.9733 8.20667 15.3667 8.5 15.94C8.72667 16.3533 8.94 16.6667 9.14 16.88C9.68667 17.4667 10.24 17.8533 10.8 18.04C11.1467 18.1467 11.5067 18.2 11.88 18.2L12.88 18.18C13.04 18.18 13.3467 18.1667 13.8 18.14C13.8933 18.14 13.9733 18.1333 14.04 18.12C14.3467 18.1067 14.56 18.06 14.68 17.98C14.9467 17.82 15.24 17.5467 15.56 17.16C15.72 16.8667 15.92 16.54 16.16 16.18C16.2667 16.06 16.34 15.9067 16.38 15.72C16.42 15.4133 16.54 15.26 16.74 15.26C16.9267 15.26 17.02 15.4133 17.02 15.72C17.02 15.7733 17.0067 16.1333 16.98 16.8V17.36C16.9533 17.7467 16.9267 17.9933 16.9 18.1C16.8867 18.1667 16.8267 18.2333 16.72 18.3L16.52 18.4C16.4933 18.4133 16.4533 18.4333 16.4 18.46C16.36 18.4733 16.3333 18.4867 16.32 18.5C15.8667 18.8067 15.6067 18.9467 15.54 18.92L14.96 19.1C14.44 19.2867 14.06 19.38 13.82 19.38C13.22 19.38 12.7933 19.3733 12.54 19.36C12.5 19.36 12.4467 19.36 12.38 19.36C12.3267 19.36 12.28 19.36 12.24 19.36L12.16 19.34C12.0133 19.34 11.84 19.3467 11.64 19.36C11.3733 19.3467 11.1533 19.3133 10.98 19.26C10.8733 19.2333 10.6133 19.12 10.2 18.92C9.76 18.6667 9.53333 18.5333 9.52 18.52L9.04 18.16C8.44 17.72 7.99333 17.3467 7.7 17.04C7.36667 16.6533 6.96 16.0333 6.48 15.18C6.29333 14.86 6.12 14.4333 5.96 13.9C5.89333 13.66 5.86 13.0733 5.86 12.14C5.86 11.42 5.90667 10.8267 6 10.36C6.14667 9.66667 6.41333 9.08667 6.8 8.62C7.12 8.26 7.28667 8.06 7.3 8.02L7.82 7.16C7.99333 6.86667 8.57333 6.5 9.56 6.06C10.24 5.75333 10.7067 5.56 10.96 5.48C11.48 5.33333 11.9667 5.26 12.42 5.26Z" fill="#86818D"/>
</svg>
