<svg width="25" height="38" viewBox="0 0 25 38" fill="none" xmlns="http://www.w3.org/2000/svg">
<path d="M0.5 25.4973L0.5 0.500244L24.5 0.500244L24.5 25.4866L12.0586 36.7102L0.5 25.4973Z" fill="#2F3A4F" fill-opacity="0.2" stroke="#2F3A4F"/>
<path d="M7.7 8.50495C7.98 8.50495 8.26667 8.53828 8.56 8.60495C8.66667 8.63162 8.72667 8.64495 8.74 8.64495C8.78 8.64495 9.07333 8.58495 9.62 8.46495L10.72 8.40495C10.7333 8.40495 11.0533 8.41828 11.68 8.44495C12.12 8.45828 12.6733 8.47828 13.34 8.50495C13.5133 8.51828 13.98 8.74495 14.74 9.18495L14.88 9.26495L15.14 9.50495C15.66 9.81162 16.0733 10.165 16.38 10.565C16.6067 10.7516 16.8933 11.105 17.24 11.625C17.4667 12.2383 17.6 12.665 17.64 12.905C17.72 13.465 17.76 13.885 17.76 14.165V15.205V16.165C17.7733 16.485 17.66 17.045 17.42 17.845C17.34 18.1383 17.2733 18.325 17.22 18.405C17.1667 18.525 17.04 18.7516 16.84 19.085C16.5867 19.525 16.3733 19.845 16.2 20.045C15.9333 20.3116 15.68 20.5183 15.44 20.665C15.4133 20.6783 15.34 20.7183 15.22 20.785C15.1133 20.8516 15.0267 20.905 14.96 20.945C14.8267 21.0116 14.42 21.165 13.74 21.405C13.66 21.445 13.54 21.4916 13.38 21.545C12.8467 21.7316 12.46 21.8383 12.22 21.865C12.0467 21.865 11.8067 21.8716 11.5 21.885C11.1133 21.9116 10.9133 21.925 10.9 21.925C10.86 21.9383 10.8067 21.945 10.74 21.945C10.6733 21.945 10.6267 21.9516 10.6 21.965C10.5733 21.965 10.4933 21.9516 10.36 21.925C10.24 21.9116 10.1267 21.8916 10.02 21.865C9.94 21.8516 9.69333 21.845 9.28 21.845C9.05333 21.845 8.85333 21.8383 8.68 21.825L8.1 21.845L7.4 21.825L7.06 21.845C6.86 21.8316 6.76 21.6983 6.76 21.445C6.76 21.3116 6.80667 21.205 6.9 21.125L7.4 20.825C7.74667 20.5583 7.91333 20.1183 7.9 19.505C7.88667 19.3983 7.90667 19.1716 7.96 18.825C8.01333 18.4783 8.04 18.2583 8.04 18.165C8.04 18.005 8.02667 17.6983 8 17.245C8 17.1916 7.99333 17.145 7.98 17.105C7.98 17.0516 7.98667 16.9916 8 16.925C8.02667 16.685 8.04 16.3916 8.04 16.045V15.945C8.02667 15.865 8.01333 15.7783 8 15.685C8 15.5783 8 15.485 8 15.405L7.98 14.405C7.98 14.1783 7.96667 13.8383 7.94 13.385C7.92667 13.1583 7.92 12.9716 7.92 12.825C7.92 12.5983 7.93333 12.3783 7.96 12.165C8.01333 11.9383 8.04 11.765 8.04 11.645C8.04 11.525 8.02 11.3516 7.98 11.125C7.96667 10.885 7.94667 10.7116 7.92 10.605C7.84 10.2183 7.77333 9.97828 7.72 9.88495C7.66667 9.76495 7.57333 9.62495 7.44 9.46495C7.4 9.43828 7.32667 9.39162 7.22 9.32495C7.12667 9.25828 7.04667 9.20495 6.98 9.16495C6.9 9.09828 6.86 8.99162 6.86 8.84495C6.86 8.61828 7.14 8.50495 7.7 8.50495ZM11.88 9.38495C10.7067 9.38495 10.1 9.79828 10.06 10.625C10.0333 10.945 9.98 11.2916 9.9 11.665C9.88667 11.6783 9.88 11.6983 9.88 11.725C9.88 11.765 9.93333 12.0116 10.04 12.465V12.685C10.04 12.6983 10.0333 12.725 10.02 12.765C10.02 12.805 10.0133 12.865 10 12.945C10 13.0116 10 13.085 10 13.165C9.97333 13.565 9.95333 13.8583 9.94 14.045C9.94 14.525 9.93333 14.9183 9.92 15.225C9.90667 15.2516 9.89333 15.2983 9.88 15.365C9.88 15.4183 9.88 15.4583 9.88 15.485L9.98 16.405C9.96667 16.6583 9.94667 16.8983 9.92 17.125L9.9 17.605L9.86 18.125C9.92667 18.6583 9.96 18.9383 9.96 18.965C9.96 19.085 9.94667 19.3183 9.92 19.665C9.90667 19.6916 9.9 19.7316 9.9 19.785C9.9 20.105 10.0133 20.3983 10.24 20.665C10.48 20.9316 10.7533 21.065 11.06 21.065C11.1267 21.065 11.3667 21.005 11.78 20.885L12.38 20.785L12.84 20.685C13.0667 20.6316 13.2733 20.5516 13.46 20.445C13.5533 20.3783 13.6933 20.2383 13.88 20.025L14.34 19.485C14.3667 19.445 14.4133 19.3916 14.48 19.325C14.5467 19.2583 14.5933 19.205 14.62 19.165C14.6333 19.1383 14.6533 19.105 14.68 19.065C14.72 19.0116 14.7667 18.9383 14.82 18.845C14.8867 18.7516 14.9467 18.665 15 18.585C15.0267 18.545 15.0733 18.4783 15.14 18.385C15.22 18.2783 15.28 18.1983 15.32 18.145C15.4 18.025 15.4667 17.8583 15.52 17.645C15.52 17.6316 15.5267 17.525 15.54 17.325C15.5667 17.1116 15.5933 16.9183 15.62 16.745L15.76 15.965C15.76 15.8583 15.7733 15.645 15.8 15.325C15.84 14.9916 15.86 14.785 15.86 14.705L15.8 14.165L15.78 13.625C15.78 13.4783 15.7667 13.1783 15.74 12.725C15.7267 12.645 15.58 12.3716 15.3 11.905C15.18 11.6383 14.9533 11.2716 14.62 10.805C14.4467 10.6316 14.1533 10.425 13.74 10.185C13.5 10.0383 13.3533 9.94495 13.3 9.90495C12.94 9.66495 12.7133 9.52495 12.62 9.48495C12.42 9.41828 12.1733 9.38495 11.88 9.38495Z" fill="#2F3A4F"/>
</svg>
