<svg width="25" height="38" viewBox="0 0 25 38" fill="none" xmlns="http://www.w3.org/2000/svg">
<path d="M0.5 25.4973L0.5 0.500244L24.5 0.500244L24.5 25.4866L12.0586 36.7102L0.5 25.4973Z" fill="#6F8FA3" fill-opacity="0.2" stroke="#6F8FA3"/>
<path d="M8.42 8.42495L8.86 8.44495C8.9 8.44495 8.96 8.44495 9.04 8.44495C9.13333 8.43162 9.26 8.42495 9.42 8.42495C9.58 8.41162 9.73333 8.40495 9.88 8.40495C10.0133 8.40495 10.1667 8.39828 10.34 8.38495C10.3667 8.38495 10.4467 8.38495 10.58 8.38495C10.7267 8.37162 10.8267 8.36495 10.88 8.36495C11.16 8.36495 11.4933 8.41162 11.88 8.50495C11.92 8.51828 11.96 8.52495 12 8.52495C12.04 8.52495 12.1867 8.50495 12.44 8.46495C12.4533 8.45162 12.54 8.44495 12.7 8.44495C12.8733 8.44495 13.0467 8.43828 13.22 8.42495C13.3533 8.41162 13.5133 8.40495 13.7 8.40495C13.98 8.40495 14.2867 8.43828 14.62 8.50495C14.6333 8.50495 14.66 8.51162 14.7 8.52495C14.74 8.53828 14.7733 8.54495 14.8 8.54495C14.84 8.53162 14.9933 8.50495 15.26 8.46495H15.4C15.68 8.46495 15.8333 8.57828 15.86 8.80495C15.8733 8.85828 15.9 9.19828 15.94 9.82495C15.9267 9.94495 15.92 10.0583 15.92 10.165C15.92 10.1783 15.92 10.2116 15.92 10.265C15.9333 10.3183 15.9467 10.4183 15.96 10.565C15.9867 10.6983 16.0067 10.8316 16.02 10.965C16.02 11.005 16.02 11.0516 16.02 11.105C16.0333 11.1583 16.04 11.205 16.04 11.245C16.0533 11.2716 16.06 11.305 16.06 11.345C16.06 11.3716 16.06 11.3916 16.06 11.405C16.06 11.6183 16 11.725 15.88 11.725C15.7867 11.6716 15.6467 11.5783 15.46 11.445C15.3933 11.405 15.26 11.145 15.06 10.665L14.86 10.365C14.8467 10.325 14.76 10.1983 14.6 9.98495C14.48 9.85162 14.2867 9.74495 14.02 9.66495C13.9 9.63828 13.6933 9.61828 13.4 9.60495C13.3867 9.59162 13.2933 9.56495 13.12 9.52495C12.7067 9.39162 12.38 9.32495 12.14 9.32495C11.5 9.32495 11.1733 9.49162 11.16 9.82495L11.12 10.265L11.08 10.565V10.725C11 11.1916 10.96 11.5383 10.96 11.765V11.825C10.96 11.865 10.96 11.9183 10.96 11.985C10.96 12.0516 10.96 12.125 10.96 12.205C10.9733 12.2716 10.98 12.3516 10.98 12.445C10.98 12.525 10.98 12.5983 10.98 12.665L10.96 13.485C10.96 14.125 11.1867 14.445 11.64 14.445C11.8533 14.445 12.0467 14.385 12.22 14.265C12.7 13.9316 13.0333 13.6516 13.22 13.425C13.3267 13.2783 13.4267 13.205 13.52 13.205C13.6133 13.205 13.6933 13.2783 13.76 13.425C13.76 13.4383 13.76 13.465 13.76 13.505C13.7733 13.545 13.78 13.605 13.78 13.685C13.7933 13.765 13.8 13.8383 13.8 13.905L13.84 14.285C13.8533 14.5383 13.84 14.905 13.8 15.385L13.76 15.745L13.8 16.165C13.8 16.205 13.8 16.2583 13.8 16.325C13.8133 16.3783 13.8267 16.425 13.84 16.465V16.525C13.84 16.6183 13.7867 16.785 13.68 17.025C13.6533 17.0916 13.6067 17.125 13.54 17.125C13.4733 17.125 13.36 17.0316 13.2 16.845L12.98 16.565L12.82 16.125L12.48 15.785C12.3867 15.6516 12.3133 15.5716 12.26 15.545C12.1667 15.465 11.96 15.425 11.64 15.425C11.4 15.425 11.2533 15.485 11.2 15.605C11.2 15.6183 11.1867 15.945 11.16 16.585C11.16 16.6916 11.12 16.9316 11.04 17.305C10.9733 17.665 10.94 17.9116 10.94 18.045C10.94 18.1916 10.9467 18.3383 10.96 18.485L10.94 19.005C10.94 19.0983 10.9267 19.3983 10.9 19.905C10.9 19.945 10.8933 19.985 10.88 20.025C10.88 20.0516 10.88 20.0783 10.88 20.105C10.88 20.1316 10.8733 20.1583 10.86 20.185C10.86 20.1983 10.86 20.2116 10.86 20.225V20.245C10.86 20.685 11.26 20.9183 12.06 20.945C12.54 20.9983 12.8333 21.025 12.94 21.025C13.0467 21.025 13.2933 20.9716 13.68 20.865C13.8933 20.8116 14.04 20.745 14.12 20.665L14.5 20.305C14.8067 20.105 14.98 19.9716 15.02 19.905C15.1 19.7583 15.2467 19.3983 15.46 18.825C15.5267 18.6383 15.64 18.545 15.8 18.545C15.9733 18.545 16.06 18.685 16.06 18.965C16.06 19.885 16.0333 20.4983 15.98 20.805L15.92 21.585C15.8533 21.8516 15.7 21.985 15.46 21.985C15.42 21.985 15.0467 21.9116 14.34 21.765C13.98 21.8183 13.7667 21.845 13.7 21.845C13.6867 21.845 13.64 21.8383 13.56 21.825C13.4933 21.825 13.38 21.825 13.22 21.825C13.06 21.8116 12.8867 21.805 12.7 21.805L11.22 21.865C11.18 21.865 11.0667 21.8583 10.88 21.845C10.7067 21.8316 10.5933 21.825 10.54 21.825H10.4C9.96 21.825 9.48667 21.8316 8.98 21.845L8.12 21.885C7.89333 21.885 7.78 21.8183 7.78 21.685C7.78 21.5116 7.86 21.3783 8.02 21.285C8.19333 21.1916 8.34 21.125 8.46 21.085C8.68667 20.805 8.82667 20.6116 8.88 20.505C8.90667 20.3716 8.94 20.145 8.98 19.825L9.04 19.245C9.04 19.1783 9.03333 19.045 9.02 18.845C9.02 18.6316 9.02 18.4983 9.02 18.445V17.725C9.00667 17.5783 9 17.445 9 17.325L9.02 17.125V16.965C9.02 16.085 9.05333 15.505 9.12 15.225C9.10667 15.0916 9.09333 14.8983 9.08 14.645C9.06667 14.3916 9.06667 14.105 9.08 13.785V13.225L9.12 12.365C9.14667 11.9916 9.18667 11.6383 9.24 11.305L9.1 10.685C9.02 10.2583 8.93333 9.97828 8.84 9.84495C8.66667 9.59162 8.36 9.32495 7.92 9.04495C7.86667 9.00495 7.84 8.93828 7.84 8.84495C7.84 8.56495 8.03333 8.42495 8.42 8.42495Z" fill="#6F8FA3"/>
</svg>
