<svg width="25" height="31" viewBox="0 0 25 31" fill="none" xmlns="http://www.w3.org/2000/svg">
<path d="M25 21.3125L12.0455 31L0 21.3125L0 0L25 0L25 21.3125Z" fill="#9333EA" fill-opacity="0.2"/>
<path d="M0.5 21.0732L0.5 0.5L24.5 0.5L24.5 21.0625L12.0566 30.3682L0.5 21.0732Z" stroke="#9333EA" stroke-opacity="0.6"/>
<path d="M8.42 6.6L8.86 6.62C8.9 6.62 8.96 6.62 9.04 6.62C9.13333 6.60667 9.26 6.6 9.42 6.6C9.58 6.58667 9.73333 6.58 9.88 6.58C10.0133 6.58 10.1667 6.57333 10.34 6.56C10.3667 6.56 10.4467 6.56 10.58 6.56C10.7267 6.54667 10.8267 6.54 10.88 6.54C11.16 6.54 11.4933 6.58667 11.88 6.68C11.92 6.69333 11.96 6.7 12 6.7C12.04 6.7 12.1867 6.68 12.44 6.64C12.4533 6.62667 12.54 6.62 12.7 6.62C12.8733 6.62 13.0467 6.61333 13.22 6.6C13.3533 6.58667 13.5133 6.58 13.7 6.58C13.98 6.58 14.2867 6.61333 14.62 6.68C14.6333 6.68 14.66 6.68667 14.7 6.7C14.74 6.71333 14.7733 6.72 14.8 6.72C14.84 6.70667 14.9933 6.68 15.26 6.64H15.4C15.68 6.64 15.8333 6.75333 15.86 6.98C15.8733 7.03333 15.9 7.37333 15.94 8C15.9267 8.12 15.92 8.23333 15.92 8.34C15.92 8.35333 15.92 8.38667 15.92 8.44C15.9333 8.49333 15.9467 8.59333 15.96 8.74C15.9867 8.87333 16.0067 9.00667 16.02 9.14C16.02 9.18 16.02 9.22667 16.02 9.28C16.0333 9.33333 16.04 9.38 16.04 9.42C16.0533 9.44667 16.06 9.48 16.06 9.52C16.06 9.54667 16.06 9.56667 16.06 9.58C16.06 9.79333 16 9.9 15.88 9.9C15.7867 9.84667 15.6467 9.75333 15.46 9.62C15.3933 9.58 15.26 9.32 15.06 8.84L14.86 8.54C14.8467 8.5 14.76 8.37333 14.6 8.16C14.48 8.02667 14.2867 7.92 14.02 7.84C13.9 7.81333 13.6933 7.79333 13.4 7.78C13.3867 7.76667 13.2933 7.74 13.12 7.7C12.7067 7.56667 12.38 7.5 12.14 7.5C11.5 7.5 11.1733 7.66667 11.16 8L11.12 8.44L11.08 8.74V8.9C11 9.36667 10.96 9.71333 10.96 9.94V10C10.96 10.04 10.96 10.0933 10.96 10.16C10.96 10.2267 10.96 10.3 10.96 10.38C10.9733 10.4467 10.98 10.5267 10.98 10.62C10.98 10.7 10.98 10.7733 10.98 10.84L10.96 11.66C10.96 12.3 11.1867 12.62 11.64 12.62C11.8533 12.62 12.0467 12.56 12.22 12.44C12.7 12.1067 13.0333 11.8267 13.22 11.6C13.3267 11.4533 13.4267 11.38 13.52 11.38C13.6133 11.38 13.6933 11.4533 13.76 11.6C13.76 11.6133 13.76 11.64 13.76 11.68C13.7733 11.72 13.78 11.78 13.78 11.86C13.7933 11.94 13.8 12.0133 13.8 12.08L13.84 12.46C13.8533 12.7133 13.84 13.08 13.8 13.56L13.76 13.92L13.8 14.34C13.8 14.38 13.8 14.4333 13.8 14.5C13.8133 14.5533 13.8267 14.6 13.84 14.64V14.7C13.84 14.7933 13.7867 14.96 13.68 15.2C13.6533 15.2667 13.6067 15.3 13.54 15.3C13.4733 15.3 13.36 15.2067 13.2 15.02L12.98 14.74L12.82 14.3L12.48 13.96C12.3867 13.8267 12.3133 13.7467 12.26 13.72C12.1667 13.64 11.96 13.6 11.64 13.6C11.4 13.6 11.2533 13.66 11.2 13.78C11.2 13.7933 11.1867 14.12 11.16 14.76C11.16 14.8667 11.12 15.1067 11.04 15.48C10.9733 15.84 10.94 16.0867 10.94 16.22C10.94 16.3667 10.9467 16.5133 10.96 16.66L10.94 17.18C10.94 17.2733 10.9267 17.5733 10.9 18.08C10.9 18.12 10.8933 18.16 10.88 18.2C10.88 18.2267 10.88 18.2533 10.88 18.28C10.88 18.3067 10.8733 18.3333 10.86 18.36C10.86 18.3733 10.86 18.3867 10.86 18.4V18.42C10.86 18.86 11.26 19.0933 12.06 19.12C12.54 19.1733 12.8333 19.2 12.94 19.2C13.0467 19.2 13.2933 19.1467 13.68 19.04C13.8933 18.9867 14.04 18.92 14.12 18.84L14.5 18.48C14.8067 18.28 14.98 18.1467 15.02 18.08C15.1 17.9333 15.2467 17.5733 15.46 17C15.5267 16.8133 15.64 16.72 15.8 16.72C15.9733 16.72 16.06 16.86 16.06 17.14C16.06 18.06 16.0333 18.6733 15.98 18.98L15.92 19.76C15.8533 20.0267 15.7 20.16 15.46 20.16C15.42 20.16 15.0467 20.0867 14.34 19.94C13.98 19.9933 13.7667 20.02 13.7 20.02C13.6867 20.02 13.64 20.0133 13.56 20C13.4933 20 13.38 20 13.22 20C13.06 19.9867 12.8867 19.98 12.7 19.98L11.22 20.04C11.18 20.04 11.0667 20.0333 10.88 20.02C10.7067 20.0067 10.5933 20 10.54 20H10.4C9.96 20 9.48667 20.0067 8.98 20.02L8.12 20.06C7.89333 20.06 7.78 19.9933 7.78 19.86C7.78 19.6867 7.86 19.5533 8.02 19.46C8.19333 19.3667 8.34 19.3 8.46 19.26C8.68667 18.98 8.82667 18.7867 8.88 18.68C8.90667 18.5467 8.94 18.32 8.98 18L9.04 17.42C9.04 17.3533 9.03333 17.22 9.02 17.02C9.02 16.8067 9.02 16.6733 9.02 16.62V15.9C9.00667 15.7533 9 15.62 9 15.5L9.02 15.3V15.14C9.02 14.26 9.05333 13.68 9.12 13.4C9.10667 13.2667 9.09333 13.0733 9.08 12.82C9.06667 12.5667 9.06667 12.28 9.08 11.96V11.4L9.12 10.54C9.14667 10.1667 9.18667 9.81333 9.24 9.48L9.1 8.86C9.02 8.43333 8.93333 8.15333 8.84 8.02C8.66667 7.76667 8.36 7.5 7.92 7.22C7.86667 7.18 7.84 7.11333 7.84 7.02C7.84 6.74 8.03333 6.6 8.42 6.6Z" fill="#9333EA" fill-opacity="0.6"/>
</svg>
