<svg width="25" height="31" viewBox="0 0 25 31" fill="none" xmlns="http://www.w3.org/2000/svg">
<path d="M25 21.3125L12.0455 31L0 21.3125L0 0L25 0L25 21.3125Z" fill="#166534" fill-opacity="0.2"/>
<path d="M0.5 21.0732L0.5 0.5L24.5 0.5L24.5 21.0625L12.0566 30.3682L0.5 21.0732Z" stroke="#166534" stroke-opacity="0.5"/>
<path d="M11.48 7.58L12.68 7.64C13.1467 7.58667 13.4667 7.56 13.64 7.56C14.2267 7.56 14.52 7.72667 14.52 8.06C14.52 8.15333 14.4467 8.25333 14.3 8.36C14.06 8.56 13.9133 8.73333 13.86 8.88C13.7267 9.28 13.66 10.2267 13.66 11.72C13.66 11.6933 13.66 11.7333 13.66 11.84C13.6733 11.9467 13.68 12.0533 13.68 12.16C13.7067 12.64 13.72 13.0467 13.72 13.38V13.92C13.72 14.6133 13.7 15.18 13.66 15.62C13.6467 15.66 13.64 15.7467 13.64 15.88C13.64 16 13.6467 16.1067 13.66 16.2C13.6733 16.4 13.68 16.6 13.68 16.8V16.88C13.6667 16.9333 13.66 16.9933 13.66 17.06V17.26C13.66 17.3667 13.6867 17.5733 13.74 17.88L13.76 18.92L13.78 19.26C13.8467 19.3533 13.92 19.4933 14 19.68C14.0133 19.72 14.04 19.78 14.08 19.86C14.12 19.94 14.1467 20 14.16 20.04L14.46 20.34C14.5667 20.4867 14.62 20.6 14.62 20.68C14.62 20.8933 14.5533 21 14.42 21H13.88H13.8C13.5333 21.0267 13.3667 21.04 13.3 21.04C13.2867 21.04 13.26 21.0333 13.22 21.02C13.18 21.02 13.1267 21.0133 13.06 21C12.9933 21 12.9267 21 12.86 21L11.98 21.02C11.78 21.0333 11.5533 20.9933 11.3 20.9C11.18 20.8333 11.12 20.7333 11.12 20.6C11.12 20.52 11.14 20.46 11.18 20.42L11.7 19.98C11.82 19.82 11.8867 19.6067 11.9 19.34C11.9 19.3133 11.9067 19.26 11.92 19.18C11.9333 19.1 11.9467 19 11.96 18.88C11.9733 18.7467 11.9867 18.6133 12 18.48C12.0133 18.44 12.02 18.3867 12.02 18.32C12.02 18.2667 12.0067 18.1467 11.98 17.96C11.9667 17.7733 11.96 17.6533 11.96 17.6C11.96 17.52 11.9733 17.2267 12 16.72C12.04 16.32 12.06 16.02 12.06 15.82C12.06 15.7667 12.0267 15.3733 11.96 14.64L12.02 14C12.02 13.9867 12.0133 13.9667 12 13.94C12 13.9 11.9933 13.8533 11.98 13.8C11.98 13.7333 11.98 13.6667 11.98 13.6V13.46V11.56C11.98 11.4667 11.9733 11.3867 11.96 11.32C11.9467 11.1867 11.9133 10.8467 11.86 10.3L11.84 9.22C11.8133 8.91333 11.6533 8.63333 11.36 8.38C11.1333 8.19333 11.02 8.04667 11.02 7.94C11.02 7.72667 11.1733 7.60667 11.48 7.58Z" fill="#166534" fill-opacity="0.5"/>
</svg>
