<svg width="25" height="31" viewBox="0 0 25 31" fill="none" xmlns="http://www.w3.org/2000/svg">
<path d="M25 21.3125L12.0455 31L0 21.3125L0 0L25 0L25 21.3125Z" fill="#D97706" fill-opacity="0.2"/>
<path d="M0.5 21.0732L0.5 0.5L24.5 0.5L24.5 21.0625L12.0566 30.3682L0.5 21.0732Z" stroke="#D97706" stroke-opacity="0.7"/>
<path d="M8.5 6.68L9.86 6.72C10.0867 6.69333 10.4467 6.67333 10.94 6.66L11.5 6.64C11.8067 6.61333 11.96 6.71333 11.96 6.94C11.96 7.03333 11.92 7.1 11.84 7.14L11.6 7.28L11.34 7.62C11.2067 7.75333 11.1333 7.85333 11.12 7.92C10.8667 8.6 10.74 9.42 10.74 10.38C10.74 10.9933 10.76 11.6 10.8 12.2L10.78 13.08V13.68V14.5V14.98C10.78 15.0333 10.76 15.2 10.72 15.48C10.7067 15.5467 10.7 15.6667 10.7 15.84C10.7 15.9733 10.72 16.16 10.76 16.4C10.7733 16.6667 10.7933 16.8533 10.82 16.96L10.86 17.48C10.86 17.5733 10.8333 17.7533 10.78 18.02V18.18C10.78 18.8067 11.0933 19.12 11.72 19.12C11.8533 19.12 12.0867 19.0933 12.42 19.04C12.6733 19.04 12.9467 19.0333 13.24 19.02L13.44 19H13.96C14.08 19 14.28 18.84 14.56 18.52C14.92 18.0933 15.1267 17.82 15.18 17.7C15.46 17.1667 15.6533 16.9 15.76 16.9C15.9067 16.9 15.9667 16.9933 15.94 17.18L15.88 18.04L15.94 18.74V18.98L15.96 19.32C15.96 19.64 15.86 19.8533 15.66 19.96C15.5267 19.9867 15.2733 20 14.9 20H14.4L13.06 19.96C13.0467 19.96 13.02 19.9667 12.98 19.98C12.9533 19.98 12.9 19.9867 12.82 20C12.74 20 12.6667 20 12.6 20H12.42C12.2067 20.0267 12.04 20.04 11.92 20.04C11.6267 20.04 11.26 20.0133 10.82 19.96C10.66 19.9333 10.5067 19.92 10.36 19.92C10.16 19.92 9.78 19.9333 9.22 19.96C9.20667 19.96 9.16667 19.9667 9.1 19.98C9.03333 19.9933 8.92667 20.0133 8.78 20.04C8.64667 20.0667 8.51333 20.0933 8.38 20.12C8.34 20.1333 8.28667 20.14 8.22 20.14C7.88667 20.14 7.72 20.0533 7.72 19.88C7.72 19.7467 7.78 19.6067 7.9 19.46C8.02 19.38 8.14667 19.2733 8.28 19.14C8.62667 18.8333 8.82 18.4067 8.86 17.86C8.9 17.6067 8.93333 17.0333 8.96 16.14V15.26C8.96 15.18 8.96 15.0933 8.96 15C8.96 14.8933 8.96 14.7933 8.96 14.7C8.96 14.6067 8.95333 14.52 8.94 14.44C8.94 14.36 8.94 14.2933 8.94 14.24V14.16C8.94 13.8267 8.97333 13.4267 9.04 12.96C9.05333 12.9333 9.06 12.86 9.06 12.74L9.04 12.68C9.04 12.64 9.04 12.58 9.04 12.5C9.04 12.42 9.03333 12.34 9.02 12.26C9.02 12.1667 9.01333 12.0667 9 11.96C9 11.84 9 11.7333 9 11.64V9.54L8.96 9.04C8.94667 8.96 8.93333 8.84 8.92 8.68C8.92 8.50667 8.92 8.37333 8.92 8.28C8.85333 8.18667 8.76667 8.04 8.66 7.84L8.44 7.5C8.4 7.46 8.32667 7.42 8.22 7.38C8.11333 7.32667 8 7.28 7.88 7.24C7.78667 7.18667 7.74 7.1 7.74 6.98C7.74 6.82 7.84667 6.73333 8.06 6.72C8.1 6.70667 8.16667 6.7 8.26 6.7C8.36667 6.68667 8.44667 6.68 8.5 6.68Z" fill="#D97706" fill-opacity="0.7"/>
</svg>
