<svg width="25" height="31" viewBox="0 0 25 31" fill="none" xmlns="http://www.w3.org/2000/svg">
<path d="M25 21.3125L12.0455 31L0 21.3125L0 0L25 0L25 21.3125Z" fill="#DC2626" fill-opacity="0.2"/>
<path d="M0.5 21.0732L0.5 0.5L24.5 0.5L24.5 21.0625L12.0566 30.3682L0.5 21.0732Z" stroke="#DC2626" stroke-opacity="0.8"/>
<path d="M7.94 17.38V18.3C7.94 18.5667 8.02667 18.98 8.2 19.54C8.25333 19.7267 8.54667 20.02 9.08 20.42C9.34667 20.6467 9.48 20.8133 9.48 20.92C9.48 21.0667 9.31333 21.14 8.98 21.14C8.95333 21.14 8.68667 21.1267 8.18 21.1C7.9 21.1 7.60667 21.0933 7.3 21.08C6.43333 21.0667 5.93333 21.04 5.8 21C5.65333 20.9333 5.58 20.82 5.58 20.66C5.58 20.58 5.59333 20.5267 5.62 20.5C5.66 20.4467 5.81333 20.3467 6.08 20.2C6.61333 19.92 6.92 19.2933 7 18.32C6.97333 17.8933 6.99333 16.9333 7.06 15.44L7.08 15.08L7.18 13.18C7.18 12.8733 7.12667 12.4133 7.02 11.8C7.02 11.7733 7.00667 11.0867 6.98 9.74C6.95333 9.34 6.89333 9.07333 6.8 8.94C6.74667 8.84667 6.46667 8.66 5.96 8.38C5.73333 8.23333 5.62 8.07333 5.62 7.9C5.62 7.71333 5.69333 7.60667 5.84 7.58C5.93333 7.58 6.05333 7.57333 6.2 7.56H6.7C6.72667 7.56 6.77333 7.56667 6.84 7.58C6.90667 7.58 7 7.58667 7.12 7.6C7.24 7.6 7.34667 7.6 7.44 7.6C7.53333 7.61333 7.61333 7.62 7.68 7.62C7.93333 7.62 8.29333 7.59333 8.76 7.54C8.84 7.52667 8.92667 7.52 9.02 7.52C9.23333 7.52 9.37333 7.61333 9.44 7.8C9.44 7.85333 9.46667 8.04667 9.52 8.38C9.54667 8.9 9.61333 9.40667 9.72 9.9C9.90667 10.6867 10.3467 11.7867 11.04 13.2C11.04 13.2133 11.0467 13.24 11.06 13.28C11.0733 13.32 11.0933 13.3733 11.12 13.44C11.1467 13.5067 11.1733 13.58 11.2 13.66C11.3333 14.1 11.4267 14.3733 11.48 14.48C11.5333 14.6133 11.6133 14.84 11.72 15.16C11.72 15.1733 11.9067 15.4867 12.28 16.1C12.4533 16.3933 12.5467 16.5933 12.56 16.7C12.6133 16.8733 12.6867 16.96 12.78 16.96C12.9133 16.96 13.1 16.78 13.34 16.42C13.3533 16.4067 13.3933 16.3467 13.46 16.24C13.6333 16 13.9 15.42 14.26 14.5L14.38 14.22L14.56 13.74L14.92 12.84L15.42 11.4L15.74 10.42L16.04 9.66C16.2 9.23333 16.3467 8.82667 16.48 8.44C16.5067 8.38667 16.5333 8.31333 16.56 8.22C16.5867 8.11333 16.6133 8.04 16.64 8C16.6933 7.84 16.78 7.73333 16.9 7.68C17.1267 7.61333 17.5133 7.58 18.06 7.58C18.22 7.58 18.3933 7.59333 18.58 7.62H18.64L19.26 7.6C19.3533 7.58667 19.48 7.66667 19.64 7.84C19.7067 7.93333 19.74 8.00667 19.74 8.06C19.74 8.18 19.7 8.25333 19.62 8.28L19.26 8.44C19.0467 8.52 18.84 8.76667 18.64 9.18C18.5867 9.3 18.5467 9.55333 18.52 9.94C18.48 10.3533 18.4533 10.9 18.44 11.58C18.44 12.1 18.4467 12.5067 18.46 12.8C18.46 12.9333 18.46 13.0667 18.46 13.2C18.4733 13.32 18.48 13.4133 18.48 13.48C18.4933 13.5467 18.5 13.5867 18.5 13.6C18.5 14.6 18.4933 15.1867 18.48 15.36V15.76V16.26L18.5 17.84C18.5 17.8933 18.4933 18.02 18.48 18.22C18.48 18.4067 18.48 18.52 18.48 18.56C18.48 18.6667 18.5267 18.9 18.62 19.26C18.7667 19.78 18.8867 20.0667 18.98 20.12L19.48 20.42C19.56 20.4867 19.6 20.5867 19.6 20.72C19.6 20.8267 19.5733 20.9133 19.52 20.98C19.48 21.0333 19.4133 21.0533 19.32 21.04L18.9 21H18.04H17.86C17.7533 21.0133 17.66 21.02 17.58 21.02L16.32 21C16.2667 21 16.1267 21 15.9 21C15.6733 21.0133 15.5267 21.02 15.46 21.02C15.1933 21.02 15.06 20.9533 15.06 20.82C15.06 20.78 15.06 20.7467 15.06 20.72C15.0733 20.6933 15.0933 20.6667 15.12 20.64C15.1467 20.6 15.1733 20.5733 15.2 20.56C15.2267 20.5333 15.2733 20.4933 15.34 20.44C15.42 20.3867 15.4933 20.3333 15.56 20.28C16.04 19.9333 16.3333 19.6533 16.44 19.44C16.4933 19.32 16.5333 19.1867 16.56 19.04C16.5333 18.8267 16.5533 18.2667 16.62 17.36L16.64 17.02L16.66 16.72C16.6733 16.6667 16.68 16.58 16.68 16.46C16.68 16.34 16.6867 16.2467 16.7 16.18L16.74 15.96C16.74 15.9067 16.72 15.7467 16.68 15.48L16.66 14.76C16.66 14.4667 16.64 14.1733 16.6 13.88C16.6 13.8 16.5933 13.7267 16.58 13.66C16.58 13.5933 16.5733 13.5467 16.56 13.52V13.46C16.56 13.3533 16.5733 13.1533 16.6 12.86C16.64 12.4467 16.66 12.1467 16.66 11.96C16.66 11.7867 16.6067 11.7 16.5 11.7C16.4067 11.7 16.3333 11.78 16.28 11.94L16.2 12.16C16.12 12.3467 16.06 12.5 16.02 12.62C15.9267 12.9 15.8467 13.08 15.78 13.16L15.52 13.5C15.4667 13.54 15.34 13.8733 15.14 14.5C14.9133 14.9533 14.7467 15.3133 14.64 15.58C14.6133 15.7 14.4533 16.2533 14.16 17.24C14.0667 17.4267 13.9467 17.66 13.8 17.94C13.7067 18.14 13.56 18.5533 13.36 19.18L13.02 19.9C12.98 20.0067 12.8533 20.3067 12.64 20.8C12.5867 20.88 12.5267 20.92 12.46 20.92C12.3667 20.92 12.2733 20.8333 12.18 20.66C12.1267 20.5667 12.02 20.2333 11.86 19.66C11.82 19.5267 11.6133 19.0267 11.24 18.16C11.0533 17.6933 10.8533 17.22 10.64 16.74C10.5333 16.54 10.3333 16.18 10.04 15.66C9.81333 15.2733 9.60667 14.7267 9.42 14.02C9.27333 13.5133 8.98667 12.8733 8.56 12.1C8.53333 12.0733 8.50667 12.04 8.48 12L8.46 11.94C8.32667 11.6467 8.23333 11.5 8.18 11.5C8.03333 11.5 7.97333 11.58 8 11.74L8.04 12.7L7.94 13.58L7.92 14.34C7.93333 14.54 7.94 14.74 7.94 14.94C7.94 14.9667 7.93333 15.04 7.92 15.16C7.92 15.2667 7.90667 15.46 7.88 15.74C7.86667 16.0067 7.85333 16.26 7.84 16.5C7.90667 17.0733 7.94 17.3667 7.94 17.38Z" fill="#DC2626" fill-opacity="0.8"/>
</svg>
