<svg width="25" height="31" viewBox="0 0 25 31" fill="none" xmlns="http://www.w3.org/2000/svg">
<path d="M25 21.3125L12.0455 31L0 21.3125L0 0L25 0L25 21.3125Z" fill="#1D4ED8" fill-opacity="0.2"/>
<path d="M0.5 21.0732L0.5 0.5L24.5 0.5L24.5 21.0625L12.0566 30.3682L0.5 21.0732Z" stroke="#1D4ED8" stroke-opacity="0.6"/>
<path d="M8.44 6.68H9.02L9.86 6.64C9.94 6.64 10.1133 6.66 10.38 6.7C10.66 6.72667 10.84 6.74 10.92 6.74C10.9867 6.74 11.04 6.73333 11.08 6.72C11.3867 6.68 11.62 6.66 11.78 6.66C12.02 6.66 12.3733 6.69333 12.84 6.76C12.8667 6.77333 12.9 6.78667 12.94 6.8C12.9933 6.8 13.0333 6.8 13.06 6.8C13.62 6.88 13.9533 6.95333 14.06 7.02C14.74 7.52667 15.1933 7.96 15.42 8.32C15.54 8.52 15.6467 8.78667 15.74 9.12L15.9 9.46C16.0067 9.7 16.06 9.99333 16.06 10.34C16.06 10.8067 15.94 11.2933 15.7 11.8C15.62 11.9733 15.4533 12.2333 15.2 12.58C15.16 12.62 14.92 12.7667 14.48 13.02C14.1867 13.1933 14.04 13.38 14.04 13.58C14.3333 13.8733 14.52 14.0667 14.6 14.16C14.68 14.2933 14.7667 14.5867 14.86 15.04C14.9133 15.2933 15.0133 15.56 15.16 15.84C15.2 15.9733 15.2533 16.18 15.32 16.46L15.42 16.98C15.46 17.4733 15.5667 17.8733 15.74 18.18C15.8067 18.2867 15.9 18.36 16.02 18.4C16.0467 18.4133 16.2067 18.44 16.5 18.48C16.7667 18.5067 16.9 18.6467 16.9 18.9C16.9 19.0467 16.8467 19.1733 16.74 19.28C16.7 19.3467 16.4933 19.4667 16.12 19.64C15.44 19.9733 14.9933 20.14 14.78 20.14C14.6333 20.14 14.5 20.06 14.38 19.9C14.38 19.86 14.3133 19.66 14.18 19.3C14.1533 19.22 14.12 19.1333 14.08 19.04C14.0533 18.9333 14.0133 18.8133 13.96 18.68C13.92 18.5333 13.8867 18.42 13.86 18.34C13.86 18.3267 13.8533 18.3 13.84 18.26C13.8267 18.2067 13.8133 18.1267 13.8 18.02C13.7867 17.9 13.7733 17.7933 13.76 17.7L13.58 16.94L13.42 15.94L13.3 15.46C13.1533 14.9267 13.0267 14.5867 12.92 14.44C12.7867 14.2533 12.5467 14.0533 12.2 13.84C11.9733 13.7067 11.6867 13.64 11.34 13.64C11.1933 13.64 11.0467 13.7067 10.9 13.84C10.7667 13.9733 10.7 14.1133 10.7 14.26L10.72 15C10.72 15.04 10.7133 15.08 10.7 15.12C10.7 15.1467 10.6867 15.2867 10.66 15.54C10.6467 15.7933 10.6267 16.0333 10.6 16.26L10.54 16.92C10.5667 17.4 10.6533 18 10.8 18.72C10.88 18.8933 11.0067 19.02 11.18 19.1C11.6867 19.34 11.94 19.5467 11.94 19.72C11.94 19.88 11.86 19.9667 11.7 19.98C11.6867 19.98 11.4733 19.9933 11.06 20.02L10.42 20H10.02C9.55333 19.9333 9.31333 19.9 9.3 19.9C9.24667 19.9 9.08667 19.9333 8.82 20H8.64H8.2C7.94667 20.0133 7.82 19.8933 7.82 19.64C7.82 19.52 7.89333 19.4 8.04 19.28C8.28 19.1067 8.44667 18.9533 8.54 18.82C8.74 18.5533 8.86667 18.3467 8.92 18.2C8.97333 18.04 9 17.8467 9 17.62L9.02 15.88C9.02 15.7733 9.02 15.6667 9.02 15.56C9.02 15.44 9.02 15.3333 9.02 15.24C9.03333 15.1333 9.04 15.04 9.04 14.96C9.05333 14.8667 9.06 14.7933 9.06 14.74V14.66C9.06 14.6733 9.06 14.6533 9.06 14.6C9.06 14.5333 9.05333 14.4667 9.04 14.4C9.04 14.3333 9.04 14.26 9.04 14.18C9.02667 13.9533 9.02 13.58 9.02 13.06L9.04 12.26L9 11.2V10.84V10.44V10.24L8.98 10.06C8.98 9.96667 8.97333 9.85333 8.96 9.72C8.96 9.58667 8.95333 9.48667 8.94 9.42C8.94 9.34 8.94 9.28 8.94 9.24C8.94 9.14667 8.89333 8.88667 8.8 8.46C8.8 8.42 8.75333 8.20667 8.66 7.82C8.60667 7.68667 8.47333 7.55333 8.26 7.42C8.06 7.3 7.96 7.18667 7.96 7.08C7.96 6.94667 7.98667 6.85333 8.04 6.8C8.12 6.72 8.25333 6.68 8.44 6.68ZM11.52 12.92H11.74H12.18C12.3533 12.92 12.5733 12.84 12.84 12.68C13.28 12.4 13.5867 12.14 13.76 11.9C13.92 11.6867 14.0333 11.4133 14.1 11.08C14.1133 11.0133 14.12 10.9533 14.12 10.9C14.1333 10.8333 14.1467 10.78 14.16 10.74C14.1733 10.7 14.18 10.6667 14.18 10.64C14.1933 10.6 14.2 10.5733 14.2 10.56V10.52C14.2 10.3733 14.1667 10.12 14.1 9.76C14.0733 9.66667 14.04 9.52 14 9.32C13.9467 9 13.72 8.66 13.32 8.3C13.0933 7.99333 12.92 7.79333 12.8 7.7C12.56 7.54 12.32 7.46 12.08 7.46L11.7 7.5C11.3267 7.56667 11.1267 7.61333 11.1 7.64C10.98 7.74667 10.86 8.00667 10.74 8.42C10.6333 8.78 10.58 8.98 10.58 9.02L10.64 9.64L10.62 10.4L10.66 10.84V11.12C10.66 11.4667 10.6533 11.6867 10.64 11.78C10.6267 11.8067 10.62 11.84 10.62 11.88C10.6467 12.0933 10.6667 12.26 10.68 12.38C10.72 12.6333 10.7733 12.7933 10.84 12.86C10.8933 12.9 11.12 12.92 11.52 12.92Z" fill="#1D4ED8" fill-opacity="0.6"/>
</svg>
