<svg width="25" height="38" viewBox="0 0 25 38" fill="none" xmlns="http://www.w3.org/2000/svg">
<path d="M8.16 17.605C8.26667 17.605 8.34 17.6516 8.38 17.745L8.78 18.885L8.9 19.125C8.92667 19.1783 9.03333 19.385 9.22 19.745C9.24667 19.7583 9.41333 19.8983 9.72 20.165L10.08 20.505C10.2933 20.6916 10.52 20.8516 10.76 20.985C10.9733 21.1583 11.1133 21.2516 11.18 21.265C11.42 21.3583 11.56 21.405 11.6 21.405L12.2 21.325C12.6533 21.3116 12.9667 21.2716 13.14 21.205C13.3133 21.125 13.5067 20.9716 13.72 20.745C13.9733 20.4916 14.14 20.305 14.22 20.185C14.26 20.1183 14.3 20.0516 14.34 19.985C14.38 19.9183 14.4133 19.865 14.44 19.825C14.4667 19.785 14.4933 19.745 14.52 19.705C14.5467 19.665 14.5667 19.6383 14.58 19.625C14.5933 19.5983 14.6 19.5783 14.6 19.565C14.7333 19.2583 14.8 19.005 14.8 18.805C14.8 17.5783 14.1467 16.745 12.84 16.305L12.18 16.005L10.8 15.625L10.44 15.425C10.28 15.345 9.96 15.1583 9.48 14.865C9.30667 14.6916 9.11333 14.485 8.9 14.245C8.52667 13.805 8.30667 13.5116 8.24 13.365C8.17333 13.2316 8.11333 13.085 8.06 12.925L8.04 12.545C8.04 12.4116 8.03333 12.2783 8.02 12.145C8.02 11.9983 8.01333 11.8916 8 11.825C8 11.745 8 11.6916 8 11.665C8 11.3583 8.08667 11.025 8.26 10.665C8.36667 10.4383 8.53333 10.1716 8.76 9.86495C8.92 9.63828 9.27333 9.32495 9.82 8.92495L10.22 8.64495L10.5 8.50495C11.06 8.23828 11.5933 8.10495 12.1 8.10495C12.82 8.10495 13.2533 8.11162 13.4 8.12495C13.7333 8.13828 14.2267 8.27162 14.88 8.52495C15.0133 8.53828 15.2 8.63828 15.44 8.82495C15.6 9.02495 15.7333 9.35162 15.84 9.80495C16.04 10.6183 16.1267 11.0383 16.1 11.065V11.245L16.16 11.665C16.16 11.7983 16.0933 11.865 15.96 11.865C15.8133 11.865 15.6867 11.8116 15.58 11.705C15.5133 11.625 15.4067 11.3983 15.26 11.025C15.1933 10.8916 15.0533 10.7183 14.84 10.505C14.8267 10.4916 14.66 10.3783 14.34 10.165L14.1 9.96495L13.9 9.80495C13.5 9.40495 13.2733 9.18495 13.22 9.14495C13.0467 9.02495 12.84 8.96495 12.6 8.96495C12.52 8.96495 12.3267 8.98495 12.02 9.02495C11.62 9.07828 11.36 9.13162 11.24 9.18495C11.04 9.26495 10.8667 9.39828 10.72 9.58495C10.3867 9.95828 10.1933 10.185 10.14 10.265C9.99333 10.545 9.90667 10.745 9.88 10.865C9.84 11.065 9.82 11.2183 9.82 11.325C9.82 11.6183 9.91333 11.9716 10.1 12.385C10.2333 12.705 10.5867 13.0183 11.16 13.325C11.3067 13.4183 11.5667 13.505 11.94 13.585L12.16 13.625C12.28 13.665 12.5533 13.7316 12.98 13.825C13.06 13.8516 13.2867 13.9716 13.66 14.185C13.8867 14.2783 14.0933 14.3716 14.28 14.465C14.48 14.5716 14.6667 14.705 14.84 14.865C15.4 15.345 15.7467 15.705 15.88 15.945C16 16.185 16.12 16.4183 16.24 16.645L16.5 17.165C16.58 17.6316 16.62 18.0583 16.62 18.445L16.64 18.905C16.6667 19.4116 16.4267 19.9516 15.92 20.525C15.7867 20.6983 15.5067 20.9716 15.08 21.345C15.0133 21.4116 14.7867 21.5583 14.4 21.785C14.0133 21.985 13.7667 22.0983 13.66 22.125C13.34 22.205 13.0733 22.2383 12.86 22.225L11.72 22.165H11.2L10.86 22.145L10.2 21.985C9.77333 21.905 9.34 21.825 8.9 21.745C8.35333 21.585 8.06 21.3316 8.02 20.985L7.94 20.465C7.88667 20.1716 7.85333 19.8583 7.84 19.525C7.84 19.325 7.83333 19.1183 7.82 18.905C7.80667 18.8116 7.8 18.7183 7.8 18.625C7.8 17.945 7.92 17.605 8.16 17.605Z" fill="#8F2E2A"/>
<path d="M0.5 25.4973L0.5 0.500244L24.5 0.500244L24.5 25.4866L12.0586 36.7102L0.5 25.4973Z" fill="#8F2E2A" fill-opacity="0.1" stroke="#8F2E2A"/>
</svg>
