<svg width="25" height="38" viewBox="0 0 25 38" fill="none" xmlns="http://www.w3.org/2000/svg">
<path d="M0.5 25.4973L0.5 0.500244L24.5 0.500244L24.5 25.4866L12.0586 36.7102L0.5 25.4973Z" fill="#796283" fill-opacity="0.2" stroke="#796283"/>
<path d="M6.6 10.7775L6.98 10.8175L7.18 10.8375C7.38 10.8509 7.69333 10.8709 8.12 10.8975C8.30667 10.9109 8.46667 10.9175 8.6 10.9175C8.74667 10.9175 9.04 10.8909 9.48 10.8375L9.84 10.8775C10.0533 10.8375 10.1933 10.8175 10.26 10.8175C10.7267 10.8175 10.96 10.9242 10.96 11.1375C10.96 11.2309 10.84 11.3575 10.6 11.5175C10.0133 11.9442 9.73333 12.2642 9.76 12.4775L9.78 12.7375C9.78 13.2309 9.8 13.5642 9.84 13.7375C9.90667 13.8975 9.98 14.1175 10.06 14.3975L10.36 15.2975L10.66 15.9175L10.82 16.4575C11.1 17.0975 11.2667 17.5042 11.32 17.6775C11.3467 17.7442 11.3867 17.9909 11.44 18.4175C11.44 18.4709 11.5067 18.6575 11.64 18.9775L11.92 19.6575L12.14 20.1575C12.3 20.5442 12.4133 20.7375 12.48 20.7375C12.56 20.7375 12.6867 20.5175 12.86 20.0775C12.8867 20.0109 12.9133 19.9442 12.94 19.8775C12.9667 19.7975 12.98 19.7509 12.98 19.7375C13.0333 19.5909 13.1 19.4242 13.18 19.2375C13.22 19.1042 13.2733 18.8975 13.34 18.6175C13.42 18.3375 13.48 18.1375 13.52 18.0175L13.82 17.0975C13.8333 17.0442 13.9667 16.7842 14.22 16.3175L14.4 15.8175L14.72 15.1575L14.9 14.5775L15.1 14.0975L15.18 13.6575L15.3 13.2175C15.42 12.8175 15.48 12.5509 15.48 12.4175C15.48 12.2709 15.2933 12.0509 14.92 11.7575C14.5867 11.5042 14.42 11.2709 14.42 11.0575C14.42 10.9109 14.52 10.8375 14.72 10.8375C14.88 10.8375 14.9933 10.8442 15.06 10.8575C15.66 10.9375 16.02 10.9775 16.14 10.9775C16.2067 10.9775 16.2667 10.9709 16.32 10.9575C16.8533 10.8909 17.2067 10.8575 17.38 10.8575C17.6333 10.8575 17.76 10.9909 17.76 11.2575C17.76 11.3775 17.7267 11.4909 17.66 11.5975C17.6333 11.6242 17.5067 11.6775 17.28 11.7575C17.1067 11.8109 16.94 11.9842 16.78 12.2775C16.7533 12.3175 16.6 12.6909 16.32 13.3975L15.84 14.3975L15.48 15.4575C15.3067 15.8309 15.1133 16.3242 14.9 16.9375C14.7667 17.3642 14.62 17.7709 14.46 18.1575L14.24 18.6975C14.2267 18.7375 13.96 19.4109 13.44 20.7175L13.08 21.6375L12.76 22.5575C12.52 23.2909 12.3067 23.8509 12.12 24.2375C12 24.4375 11.8733 24.5375 11.74 24.5375C11.6467 24.5375 11.5733 24.4975 11.52 24.4175C11.5067 24.4042 11.44 24.1442 11.32 23.6375C11.2267 23.2642 11.0533 22.8175 10.8 22.2975L10.68 21.8575L10.52 21.3375L10.38 20.8575L10.02 19.6375C9.91333 19.1442 9.84 18.8509 9.8 18.7575C9.78667 18.7175 9.49333 18.0242 8.92 16.6775C8.90667 16.6242 8.85333 16.4375 8.76 16.1175C8.57333 15.4242 8.28667 14.6442 7.9 13.7775C7.86 13.6975 7.68 13.3642 7.36 12.7775C7.22667 12.5375 7.08 12.2909 6.92 12.0375C6.89333 12.0109 6.7 11.8442 6.34 11.5375C6.19333 11.4175 6.12 11.2909 6.12 11.1575C6.12 10.9175 6.28 10.7909 6.6 10.7775Z" fill="#796283"/>
</svg>
